Exo 2-Regular.ufo
<glyph name="parenleft" format="2">
  <advance width="359.37647"/>
  <unicode hex="0028"/>
  <outline>
    <contour>
      <point x="328" y="749" type="curve"/>
      <point x="317" y="790" type="line"/>
      <point x="136" y="721"/>
      <point x="54" y="571"/>
      <point x="54" y="312" type="curve" smooth="yes"/>
      <point x="54" y="55"/>
      <point x="136" y="-95"/>
      <point x="317" y="-165" type="curve"/>
      <point x="328" y="-124" type="line"/>
      <point x="194" y="-55"/>
      <point x="137" y="90"/>
      <point x="137" y="313" type="curve" smooth="yes"/>
      <point x="137" y="540"/>
      <point x="194" y="684"/>
    </contour>
  </outline>
</glyph>
<glyph name="plus" format="2">
  <advance width="550.81176"/>
  <unicode hex="002B"/>
  <outline>
    <contour>
      <point x="494" y="331" type="line"/>
      <point x="56" y="331" type="line"/>
      <point x="56" y="267" type="line"/>
      <point x="494" y="267" type="line"/>
    </contour>
    <contour>
      <point x="308" y="507" type="line"/>
      <point x="242" y="507" type="line"/>
      <point x="243" y="90" type="line"/>
      <point x="307" y="90" type="line"/>
    </contour>
  </outline>
</glyph>
<glyph name="hyphen" format="2">
  <advance width="448.71765"/>
  <unicode hex="002D"/>
  <outline>
    <contour>
      <point x="377" y="285" type="line"/>
      <point x="72" y="285" type="line"/>
      <point x="72" y="220" type="line"/>
      <point x="377" y="220" type="line"/>
    </contour>
  </outline>
</glyph>
<glyph name="slash" format="2">
  <advance width="517.34118"/>
  <unicode hex="002F"/>
  <outline>
    <contour>
      <point x="490" y="690" type="line"/>
      <point x="420" y="690" type="line"/>
      <point x="27" y="-66" type="line"/>
      <point x="97" y="-66" type="line"/>
    </contour>
  </outline>
</glyph>
<glyph name="less" format="2">
  <advance width="530.05882"/>
  <unicode hex="003C"/>
  <outline>
    <contour>
      <point x="459" y="506" type="line"/>
      <point x="53" y="332" type="line"/>
      <point x="53" y="264" type="line"/>
      <point x="459" y="93" type="line"/>
      <point x="459" y="161" type="line"/>
      <point x="127" y="298" type="line"/>
      <point x="459" y="438" type="line"/>
    </contour>
  </outline>
</glyph>
<glyph name="equal" format="2">
  <advance width="585.35294"/>
  <unicode hex="003D"/>
  <outline>
    <contour>
      <point x="512" y="430" type="line"/>
      <point x="74" y="430" type="line"/>
      <point x="74" y="367" type="line"/>
      <point x="512" y="367" type="line"/>
    </contour>
    <contour>
      <point x="512" y="219" type="line"/>
      <point x="74" y="219" type="line"/>
      <point x="74" y="155" type="line"/>
      <point x="512" y="155" type="line"/>
    </contour>
  </outline>
</glyph>
<glyph name="L" format="2">
  <advance width="513.56471"/>
  <unicode hex="004C"/>
  <anchor x="301" y="0" name="bottom"/>
  <anchor x="131" y="736" name="top"/>
  <anchor x="344" y="619" name="topright"/>
  <outline>
    <contour>
      <point x="172" y="140" type="curve" smooth="yes"/>
      <point x="172" y="690" type="line"/>
      <point x="85" y="690" type="line"/>
      <point x="85" y="129" type="line" smooth="yes"/>
      <point x="85" y="54"/>
      <point x="123" y="-1"/>
      <point x="225" y="-1" type="curve" smooth="yes"/>
      <point x="314" y="-1"/>
      <point x="405" y="-1"/>
      <point x="492" y="6" type="curve"/>
      <point x="488" y="74" type="line"/>
      <point x="239" y="74" type="line" smooth="yes"/>
      <point x="193" y="74"/>
      <point x="172" y="94"/>
    </contour>
  </outline>
</glyph>
<glyph name="backslash" format="2">
  <advance width="518.07059"/>
  <unicode hex="005C"/>
  <outline>
    <contour>
      <point x="98" y="690" type="line"/>
      <point x="27" y="690" type="line"/>
      <point x="420" y="-66" type="line"/>
      <point x="491" y="-66" type="line"/>
    </contour>
  </outline>
</glyph>
<glyph name="underscore" format="2">
  <advance width="437.56471"/>
  <unicode hex="005F"/>
  <outline>
    <contour>
      <point x="438" y="0" type="line"/>
      <point x="0" y="0" type="line"/>
      <point x="0" y="-65" type="line"/>
      <point x="438" y="-65" type="line"/>
    </contour>
  </outline>
</glyph>
<glyph name="l" format="2">
  <advance width="296.98824"/>
  <unicode hex="006C"/>
  <anchor x="187" y="-9" name="bottom"/>
  <anchor x="122" y="751" name="top"/>
  <anchor x="263" y="635" name="topright"/>
  <outline>
    <contour>
      <point x="163" y="134" type="curve" smooth="yes"/>
      <point x="163" y="700" type="line"/>
      <point x="79" y="700" type="line"/>
      <point x="79" y="115" type="line" smooth="yes"/>
      <point x="79" y="35"/>
      <point x="126" y="-9"/>
      <point x="198" y="-9" type="curve" smooth="yes"/>
      <point x="222" y="-9"/>
      <point x="268" y="-5"/>
      <point x="287" y="4" type="curve"/>
      <point x="277" y="69" type="line"/>
      <point x="230" y="69" type="line" smooth="yes"/>
      <point x="187" y="69"/>
      <point x="163" y="91"/>
    </contour>
  </outline>
</glyph>
<glyph name="t" format="2">
  <advance width="381.28235"/>
  <unicode hex="0074"/>
  <anchor x="247" y="-9" name="bottom"/>
  <anchor x="160" y="645" name="top"/>
  <anchor x="316" y="691" name="topright"/>
  <outline>
    <contour>
      <point x="200" y="134" type="curve" smooth="yes"/>
      <point x="200" y="631" type="line"/>
      <point x="115" y="631" type="line"/>
      <point x="115" y="123" type="line" smooth="yes"/>
      <point x="115" y="38"/>
      <point x="158" y="-9"/>
      <point x="240" y="-9" type="curve" smooth="yes"/>
      <point x="264" y="-9"/>
      <point x="318" y="-5"/>
      <point x="350" y="4" type="curve"/>
      <point x="340" y="69" type="line"/>
      <point x="266" y="69" type="line" smooth="yes"/>
      <point x="218" y="69"/>
      <point x="200" y="87"/>
    </contour>
    <contour>
      <point x="355" y="487" type="line"/>
      <point x="123" y="487" type="line"/>
      <point x="27" y="482" type="line"/>
      <point x="27" y="420" type="line"/>
      <point x="355" y="420" type="line"/>
    </contour>
  </outline>
</glyph>
<glyph name="logicalnot" format="2">
  <advance width="590.08235"/>
  <unicode hex="00AC"/>
  <outline>
    <contour>
      <point x="512" y="330" type="line"/>
      <point x="74" y="330" type="line"/>
      <point x="74" y="265" type="line"/>
      <point x="512" y="265" type="line"/>
    </contour>
    <contour>
      <point x="512" y="321" type="line"/>
      <point x="446" y="321" type="line"/>
      <point x="446" y="132" type="line"/>
      <point x="512" y="132" type="line"/>
    </contour>
  </outline>
</glyph>
<glyph name="guillemotright" format="2">
  <advance width="484.82353"/>
  <unicode hex="00BB"/>
  <outline>
    <contour>
      <point x="99" y="459" type="line"/>
      <point x="54" y="429" type="line"/>
      <point x="180" y="251" type="line"/>
      <point x="53" y="69" type="line"/>
      <point x="98" y="39" type="line"/>
      <point x="259" y="241" type="line"/>
      <point x="259" y="261" type="line"/>
    </contour>
    <contour>
      <point x="281" y="459" type="line"/>
      <point x="236" y="429" type="line"/>
      <point x="362" y="251" type="line"/>
      <point x="235" y="69" type="line"/>
      <point x="280" y="39" type="line"/>
      <point x="441" y="241" type="line"/>
      <point x="441" y="261" type="line"/>
    </contour>
  </outline>
</glyph>
<glyph name="dotlessi" format="2">
  <advance width="249.17647"/>
  <unicode hex="0131"/>
  <anchor x="126" y="-9" name="bottom"/>
  <anchor x="161" y="0" name="ogonek"/>
  <anchor x="125" y="554" name="top"/>
  <outline>
    <contour>
      <point x="167" y="487" type="line"/>
      <point x="82" y="487" type="line"/>
      <point x="82" y="0" type="line"/>
      <point x="167" y="0" type="line"/>
    </contour>
  </outline>
</glyph>
<glyph name="lslash" format="2">
  <advance width="327.52941"/>
  <unicode hex="0142"/>
  <outline>
    <contour>
      <point x="294" y="470" type="line"/>
      <point x="21" y="356" type="line"/>
      <point x="21" y="301" type="line"/>
      <point x="294" y="415" type="line"/>
    </contour>
    <component base="l" xOffset="22"/>
  </outline>
</glyph>
<glyph name="uni0237" format="2">
  <advance width="249.90588"/>
  <unicode hex="0237"/>
  <anchor x="126" y="-9" name="bottom"/>
  <anchor x="125" y="554" name="top"/>
  <outline>
    <contour>
      <point x="168" y="-12" type="curve" smooth="yes"/>
      <point x="168" y="487" type="line"/>
      <point x="83" y="487" type="line"/>
      <point x="83" y="-12" type="line" smooth="yes"/>
      <point x="83" y="-75"/>
      <point x="65" y="-119"/>
      <point x="27" y="-166" type="curve"/>
      <point x="74" y="-203" type="line"/>
      <point x="132" y="-160"/>
      <point x="168" y="-90"/>
    </contour>
  </outline>
</glyph>
<glyph name="uni02B9" format="2">
  <advance width="259.07059"/>
  <unicode hex="02B9"/>
  <anchor x="142" y="544" name="_top"/>
  <outline>
    <contour>
      <point x="200" y="754" type="line"/>
      <point x="131" y="754" type="line"/>
      <point x="79" y="539" type="line"/>
      <point x="137" y="539" type="line"/>
    </contour>
  </outline>
</glyph>
<glyph name="uni02C8" format="2">
  <advance width="191.81176"/>
  <unicode hex="02C8"/>
  <anchor x="96" y="552" name="_top"/>
  <outline>
    <contour>
      <point x="128" y="574" type="line"/>
      <point x="128" y="698" type="line"/>
      <point x="63" y="698" type="line"/>
      <point x="63" y="574" type="line"/>
    </contour>
  </outline>
</glyph>
<glyph name="uni02CA" format="2">
  <advance width="314.2"/>
  <unicode hex="02CA"/>
  <anchor x="120" y="544" name="_top"/>
  <outline>
    <contour>
      <point x="221" y="731" type="line"/>
      <point x="49" y="584" type="line"/>
      <point x="78" y="545" type="line"/>
      <point x="270" y="665" type="line"/>
    </contour>
  </outline>
</glyph>
<glyph name="uni02CB" format="2">
  <advance width="314.2"/>
  <unicode hex="02CB"/>
  <anchor x="200" y="544" name="_top"/>
  <outline>
    <contour>
      <point x="85" y="723" type="line"/>
      <point x="36" y="658" type="line"/>
      <point x="228" y="538" type="line"/>
      <point x="257" y="577" type="line"/>
    </contour>
  </outline>
</glyph>
<glyph name="gravecomb" format="2">
  <advance width="0"/>
  <unicode hex="0300"/>
  <anchor x="200" y="544" name="_top"/>
  <outline>
    <contour>
      <point x="85" y="723" type="line"/>
      <point x="36" y="658" type="line"/>
      <point x="228" y="538" type="line"/>
      <point x="257" y="577" type="line"/>
    </contour>
  </outline>
</glyph>
<glyph name="acutecomb" format="2">
  <advance width="0"/>
  <unicode hex="0301"/>
  <anchor x="-238" y="544" name="_top"/>
  <outline>
    <contour>
      <point x="-131" y="723" type="line"/>
      <point x="-304" y="577" type="line"/>
      <point x="-274" y="538" type="line"/>
      <point x="-83" y="658" type="line"/>
    </contour>
  </outline>
</glyph>
<glyph name="uni0302" format="2">
  <advance width="0"/>
  <unicode hex="0302"/>
  <anchor x="-216" y="551" name="_top"/>
  <outline>
    <contour>
      <point x="-186" y="713" type="line"/>
      <point x="-248" y="713" type="line"/>
      <point x="-379" y="586" type="line"/>
      <point x="-350" y="549" type="line"/>
      <point x="-221" y="646" type="line"/>
      <point x="-213" y="646" type="line"/>
      <point x="-83" y="549" type="line"/>
      <point x="-53" y="586" type="line"/>
    </contour>
  </outline>
</glyph>
<glyph name="uni0304" format="2">
  <advance width="0"/>
  <unicode hex="0304"/>
  <anchor x="-205" y="557" name="_top"/>
  <outline>
    <contour>
      <point x="-66" y="672" type="line"/>
      <point x="-345" y="672" type="line"/>
      <point x="-345" y="609" type="line"/>
      <point x="-66" y="609" type="line"/>
    </contour>
  </outline>
</glyph>
<glyph name="uni0306" format="2">
  <advance width="0"/>
  <unicode hex="0306"/>
  <anchor x="-198" y="547" name="_top"/>
  <outline>
    <contour>
      <point x="-50" y="690" type="curve"/>
      <point x="-93" y="696" type="line"/>
      <point x="-93" y="649"/>
      <point x="-132" y="621"/>
      <point x="-198" y="621" type="curve" smooth="yes"/>
      <point x="-268" y="621"/>
      <point x="-306" y="649"/>
      <point x="-306" y="696" type="curve"/>
      <point x="-349" y="690" type="line"/>
      <point x="-354" y="612"/>
      <point x="-296" y="558"/>
      <point x="-198" y="558" type="curve" smooth="yes"/>
      <point x="-102" y="558"/>
      <point x="-44" y="612"/>
    </contour>
  </outline>
</glyph>
<glyph name="uni0307" format="2">
  <advance width="0"/>
  <unicode hex="0307"/>
  <anchor x="-139" y="552" name="_top"/>
  <outline>
    <contour>
      <point x="-125" y="685" type="curve" smooth="yes"/>
      <point x="-152" y="685" type="line" smooth="yes"/>
      <point x="-169" y="685"/>
      <point x="-178" y="676"/>
      <point x="-178" y="660" type="curve" smooth="yes"/>
      <point x="-178" y="603" type="line" smooth="yes"/>
      <point x="-178" y="586"/>
      <point x="-169" y="577"/>
      <point x="-152" y="577" type="curve" smooth="yes"/>
      <point x="-125" y="577" type="line" smooth="yes"/>
      <point x="-108" y="577"/>
      <point x="-99" y="586"/>
      <point x="-99" y="603" type="curve" smooth="yes"/>
      <point x="-99" y="660" type="line" smooth="yes"/>
      <point x="-99" y="676"/>
      <point x="-108" y="685"/>
    </contour>
  </outline>
</glyph>
<glyph name="hookabovecomb" format="2">
  <advance width="0"/>
  <unicode hex="0309"/>
  <anchor x="-150" y="562" name="_top"/>
  <outline>
    <contour>
      <point x="-173" y="611" type="curve"/>
      <point x="-163" y="568" type="line"/>
      <point x="-97" y="581"/>
      <point x="-58" y="625"/>
      <point x="-58" y="681" type="curve" smooth="yes"/>
      <point x="-58" y="756"/>
      <point x="-124" y="787"/>
      <point x="-205" y="763" type="curve"/>
      <point x="-195" y="715" type="line"/>
      <point x="-150" y="728"/>
      <point x="-116" y="715"/>
      <point x="-116" y="678" type="curve" smooth="yes"/>
      <point x="-116" y="647"/>
      <point x="-131" y="623"/>
    </contour>
  </outline>
</glyph>
<glyph name="uni030C" format="2">
  <advance width="0"/>
  <unicode hex="030C"/>
  <anchor x="-217" y="551" name="_top"/>
  <outline>
    <contour>
      <point x="-83" y="724" type="line"/>
      <point x="-212" y="637" type="line"/>
      <point x="-220" y="637" type="line"/>
      <point x="-350" y="724" type="line"/>
      <point x="-379" y="688" type="line"/>
      <point x="-236" y="560" type="line"/>
      <point x="-196" y="560" type="line"/>
      <point x="-53" y="688" type="line"/>
    </contour>
  </outline>
</glyph>
<glyph name="uni030F" format="2">
  <advance width="0"/>
  <unicode hex="030F"/>
  <anchor x="-201" y="544" name="_top"/>
  <outline>
    <contour>
      <point x="-185" y="756" type="line"/>
      <point x="-247" y="713" type="line"/>
      <point x="-112" y="554" type="line"/>
      <point x="-74" y="582" type="line"/>
    </contour>
    <contour>
      <point x="-349" y="756" type="line"/>
      <point x="-411" y="713" type="line"/>
      <point x="-276" y="554" type="line"/>
      <point x="-239" y="582" type="line"/>
    </contour>
  </outline>
</glyph>
<glyph name="dotbelowcomb" format="2">
  <advance width="0"/>
  <unicode hex="0323"/>
  <anchor x="-113" y="0" name="_bottom"/>
  <outline>
    <contour>
      <point x="-99" y="-52" type="curve" smooth="yes"/>
      <point x="-126" y="-52" type="line" smooth="yes"/>
      <point x="-143" y="-52"/>
      <point x="-152" y="-61"/>
      <point x="-152" y="-77" type="curve" smooth="yes"/>
      <point x="-152" y="-134" type="line" smooth="yes"/>
      <point x="-152" y="-151"/>
      <point x="-143" y="-160"/>
      <point x="-126" y="-160" type="curve" smooth="yes"/>
      <point x="-99" y="-160" type="line" smooth="yes"/>
      <point x="-82" y="-160"/>
      <point x="-73" y="-151"/>
      <point x="-73" y="-134" type="curve" smooth="yes"/>
      <point x="-73" y="-77" type="line" smooth="yes"/>
      <point x="-73" y="-61"/>
      <point x="-82" y="-52"/>
    </contour>
  </outline>
</glyph>
<glyph name="uni0324" format="2">
  <advance width="0"/>
  <unicode hex="0324"/>
  <anchor x="-214" y="0" name="_bottom"/>
  <outline>
    <contour>
      <point x="-110" y="-54" type="curve" smooth="yes"/>
      <point x="-138" y="-54" type="line" smooth="yes"/>
      <point x="-155" y="-54"/>
      <point x="-162" y="-63"/>
      <point x="-162" y="-78" type="curve" smooth="yes"/>
      <point x="-162" y="-133" type="line" smooth="yes"/>
      <point x="-162" y="-149"/>
      <point x="-155" y="-157"/>
      <point x="-138" y="-157" type="curve" smooth="yes"/>
      <point x="-110" y="-157" type="line" smooth="yes"/>
      <point x="-95" y="-157"/>
      <point x="-86" y="-149"/>
      <point x="-86" y="-133" type="curve" smooth="yes"/>
      <point x="-86" y="-78" type="line" smooth="yes"/>
      <point x="-86" y="-63"/>
      <point x="-95" y="-54"/>
    </contour>
    <contour>
      <point x="-287" y="-54" type="curve" smooth="yes"/>
      <point x="-316" y="-54" type="line" smooth="yes"/>
      <point x="-332" y="-54"/>
      <point x="-339" y="-63"/>
      <point x="-339" y="-78" type="curve" smooth="yes"/>
      <point x="-339" y="-133" type="line" smooth="yes"/>
      <point x="-339" y="-149"/>
      <point x="-332" y="-157"/>
      <point x="-316" y="-157" type="curve" smooth="yes"/>
      <point x="-287" y="-157" type="line" smooth="yes"/>
      <point x="-271" y="-157"/>
      <point x="-264" y="-149"/>
      <point x="-264" y="-133" type="curve" smooth="yes"/>
      <point x="-264" y="-78" type="line" smooth="yes"/>
      <point x="-264" y="-63"/>
      <point x="-271" y="-54"/>
    </contour>
  </outline>
</glyph>
<glyph name="uni0326" format="2">
  <advance width="0"/>
  <unicode hex="0326"/>
  <anchor x="75" y="-3" name="bottom"/>
  <outline>
    <contour>
      <point x="42" y="-263" type="curve"/>
      <point x="79" y="-273" type="line"/>
      <point x="99" y="-235"/>
      <point x="110" y="-190"/>
      <point x="111" y="-141" type="curve" smooth="yes"/>
      <point x="111" y="-86" type="line" smooth="yes"/>
      <point x="111" y="-66"/>
      <point x="104" y="-59"/>
      <point x="82" y="-59" type="curve" smooth="yes"/>
      <point x="60" y="-59" type="line" smooth="yes"/>
      <point x="40" y="-59"/>
      <point x="31" y="-66"/>
      <point x="30" y="-86" type="curve" smooth="yes"/>
      <point x="30" y="-136" type="line" smooth="yes"/>
      <point x="30" y="-151"/>
      <point x="38" y="-160"/>
      <point x="52" y="-160" type="curve"/>
      <point x="52" y="-202"/>
      <point x="49" y="-228"/>
    </contour>
  </outline>
</glyph>
<glyph name="uni0328" format="2">
  <advance width="0"/>
  <unicode hex="0328"/>
  <anchor x="-90" y="0" name="_ogonek"/>
  <outline>
    <contour>
      <point x="-90" y="0" type="curve"/>
      <point x="-129" y="2" type="line"/>
      <point x="-186" y="-43"/>
      <point x="-213" y="-84"/>
      <point x="-224" y="-117" type="curve" smooth="yes"/>
      <point x="-250" y="-187"/>
      <point x="-202" y="-246"/>
      <point x="-76" y="-193" type="curve"/>
      <point x="-87" y="-158" type="line"/>
      <point x="-149" y="-178"/>
      <point x="-185" y="-163"/>
      <point x="-165" y="-114" type="curve" smooth="yes"/>
      <point x="-147" y="-69"/>
      <point x="-120" y="-34"/>
    </contour>
  </outline>
</glyph>
<glyph name="uni032E" format="2">
  <advance width="0"/>
  <unicode hex="032E"/>
  <anchor x="-206" y="0" name="_bottom"/>
  <outline>
    <contour>
      <point x="-57" y="-49" type="curve"/>
      <point x="-100" y="-42" type="line"/>
      <point x="-100" y="-90"/>
      <point x="-139" y="-117"/>
      <point x="-206" y="-117" type="curve" smooth="yes"/>
      <point x="-275" y="-117"/>
      <point x="-313" y="-90"/>
      <point x="-313" y="-42" type="curve"/>
      <point x="-357" y="-49" type="line"/>
      <point x="-362" y="-127"/>
      <point x="-303" y="-181"/>
      <point x="-206" y="-181" type="curve" smooth="yes"/>
      <point x="-110" y="-181"/>
      <point x="-52" y="-127"/>
    </contour>
  </outline>
</glyph>
<glyph name="uni040F" format="2">
  <advance width="674.02353"/>
  <unicode hex="040F"/>
  <outline>
    <contour>
      <point x="587" y="690" type="line"/>
      <point x="499" y="690" type="line"/>
      <point x="499" y="0" type="line"/>
      <point x="587" y="0" type="line"/>
    </contour>
    <contour>
      <point x="374" y="7" type="line"/>
      <point x="304" y="7" type="line"/>
      <point x="310" y="-151" type="line"/>
      <point x="370" y="-151" type="line"/>
    </contour>
    <contour>
      <point x="559" y="72" type="line"/>
      <point x="167" y="72" type="line"/>
      <point x="167" y="0" type="line"/>
      <point x="560" y="0" type="line"/>
    </contour>
    <contour>
      <point x="175" y="690" type="line"/>
      <point x="87" y="690" type="line"/>
      <point x="87" y="0" type="line"/>
      <point x="175" y="0" type="line"/>
    </contour>
  </outline>
</glyph>
<glyph name="uni041F" format="2">
  <advance width="669.02353"/>
  <unicode hex="041F"/>
  <outline>
    <contour>
      <point x="175" y="690" type="line"/>
      <point x="87" y="690" type="line"/>
      <point x="87" y="0" type="line"/>
      <point x="175" y="0" type="line"/>
    </contour>
    <contour>
      <point x="505" y="690" type="line"/>
      <point x="167" y="690" type="line"/>
      <point x="167" y="618" type="line"/>
      <point x="505" y="618" type="line"/>
    </contour>
    <contour>
      <point x="582" y="690" type="line"/>
      <point x="494" y="690" type="line"/>
      <point x="494" y="0" type="line"/>
      <point x="582" y="0" type="line"/>
    </contour>
  </outline>
</glyph>
<glyph name="uni0422" format="2">
  <advance width="580.77647"/>
  <unicode hex="0422"/>
  <outline>
    <contour>
      <point x="334" y="690" type="line"/>
      <point x="246" y="690" type="line"/>
      <point x="246" y="0" type="line"/>
      <point x="334" y="0" type="line"/>
    </contour>
    <contour>
      <point x="557" y="690" type="line"/>
      <point x="24" y="690" type="line"/>
      <point x="24" y="612" type="line"/>
      <point x="557" y="612" type="line"/>
    </contour>
  </outline>
</glyph>
<glyph name="uni0425" format="2">
  <advance width="612.85882"/>
  <unicode hex="0425"/>
  <outline>
    <contour>
      <point x="574" y="690" type="line"/>
      <point x="479" y="690" type="line"/>
      <point x="302" y="357" type="line"/>
      <point x="491" y="0" type="line"/>
      <point x="587" y="0" type="line"/>
      <point x="392" y="357" type="line"/>
    </contour>
    <contour>
      <point x="134" y="690" type="line"/>
      <point x="39" y="690" type="line"/>
      <point x="220" y="357" type="line"/>
      <point x="26" y="0" type="line"/>
      <point x="121" y="0" type="line"/>
      <point x="310" y="357" type="line"/>
    </contour>
    <contour>
      <point x="359" y="392" type="line"/>
      <point x="252" y="392" type="line"/>
      <point x="252" y="324" type="line"/>
      <point x="359" y="324" type="line"/>
    </contour>
  </outline>
</glyph>
<glyph name="uni0442" format="2">
  <advance width="490.42353"/>
  <unicode hex="0442"/>
  <outline>
    <contour>
      <point x="288" y="487" type="line"/>
      <point x="203" y="487" type="line"/>
      <point x="203" y="0" type="line"/>
      <point x="288" y="0" type="line"/>
    </contour>
    <contour>
      <point x="464" y="487" type="line"/>
      <point x="26" y="487" type="line"/>
      <point x="26" y="417" type="line"/>
      <point x="464" y="417" type="line"/>
    </contour>
  </outline>
</glyph>
<glyph name="uni0446" format="2">
  <advance width="593.71765"/>
  <unicode hex="0446"/>
  <outline>
    <contour>
      <point x="163" y="487" type="line"/>
      <point x="80" y="487" type="line"/>
      <point x="80" y="0" type="line"/>
      <point x="163" y="0" type="line"/>
    </contour>
    <contour>
      <point x="556" y="68" type="line"/>
      <point x="155" y="68" type="line"/>
      <point x="156" y="0" type="line"/>
      <point x="556" y="0" type="line"/>
    </contour>
    <contour>
      <point x="490" y="487" type="line"/>
      <point x="405" y="487" type="line"/>
      <point x="405" y="0" type="line"/>
      <point x="489" y="0" type="line"/>
    </contour>
    <contour>
      <point x="556" y="5" type="line"/>
      <point x="491" y="5" type="line"/>
      <point x="500" y="-144" type="line"/>
      <point x="556" y="-144" type="line"/>
    </contour>
  </outline>
</glyph>
<glyph name="uni0448" format="2">
  <advance width="805.8"/>
  <unicode hex="0448"/>
  <outline>
    <contour>
      <point x="162" y="487" type="line"/>
      <point x="79" y="487" type="line"/>
      <point x="79" y="0" type="line"/>
      <point x="162" y="0" type="line"/>
    </contour>
    <contour>
      <point x="667" y="68" type="line"/>
      <point x="155" y="68" type="line"/>
      <point x="155" y="0" type="line"/>
      <point x="667" y="0" type="line"/>
    </contour>
    <contour>
      <point x="441" y="487" type="line"/>
      <point x="364" y="487" type="line"/>
      <point x="364" y="0" type="line"/>
      <point x="441" y="0" type="line"/>
    </contour>
    <contour>
      <point x="726" y="487" type="line"/>
      <point x="644" y="487" type="line"/>
      <point x="644" y="0" type="line"/>
      <point x="726" y="0" type="line"/>
    </contour>
  </outline>
</glyph>
<glyph name="uni048A" format="2">
  <advance width="718.84706"/>
  <unicode hex="048A"/>
  <outline>
    <contour>
      <point x="519" y="72" type="line"/>
      <point x="519" y="0" type="line"/>
      <point x="617" y="0" type="line"/>
      <point x="579" y="-151" type="line"/>
      <point x="640" y="-151" type="line"/>
      <point x="686" y="1" type="line"/>
      <point x="686" y="72" type="line"/>
    </contour>
    <component base="uni0418"/>
    <component base="uni0306.cy" xOffset="161" yOffset="248"/>
  </outline>
</glyph>
<glyph name="uni048C" format="2">
  <advance width="621"/>
  <unicode hex="048C"/>
  <outline>
    <contour>
      <point x="11" y="514" type="line"/>
      <point x="454" y="514" type="line"/>
      <point x="454" y="578" type="line"/>
      <point x="11" y="578" type="line"/>
    </contour>
    <component base="uni042C" xOffset="40"/>
  </outline>
</glyph>
<glyph name="uni0493" format="2">
  <advance width="462.07059"/>
  <unicode hex="0493"/>
  <outline>
    <contour>
      <point x="-5" y="193" type="line"/>
      <point x="322" y="193" type="line"/>
      <point x="322" y="249" type="line"/>
      <point x="-5" y="249" type="line"/>
    </contour>
    <component base="uni0433"/>
  </outline>
</glyph>
<glyph name="uni0496" format="2">
  <advance width="928.45882"/>
  <unicode hex="0496"/>
  <outline>
    <contour>
      <point x="922" y="72" type="line"/>
      <point x="794" y="72" type="line"/>
      <point x="794" y="0" type="line"/>
      <point x="922" y="0" type="line"/>
    </contour>
    <contour>
      <point x="922" y="7" type="line"/>
      <point x="853" y="7" type="line"/>
      <point x="862" y="-151" type="line"/>
      <point x="922" y="-151" type="line"/>
    </contour>
    <component base="uni0416" xOffset="-7"/>
  </outline>
</glyph>
<glyph name="uni0497" format="2">
  <advance width="811.84706"/>
  <unicode hex="0497"/>
  <outline>
    <contour>
      <point x="801" y="68" type="line"/>
      <point x="681" y="68" type="line"/>
      <point x="682" y="0" type="line"/>
      <point x="801" y="0" type="line"/>
    </contour>
    <contour>
      <point x="801" y="5" type="line"/>
      <point x="735" y="5" type="line"/>
      <point x="744" y="-144" type="line"/>
      <point x="801" y="-144" type="line"/>
    </contour>
    <component base="uni0436"/>
  </outline>
</glyph>
<glyph name="uni0499" format="2">
  <advance width="496.07059"/>
  <unicode hex="0499"/>
  <outline>
    <contour>
      <point x="277" y="5" type="line"/>
      <point x="205" y="5" type="line"/>
      <point x="213" y="-165" type="line"/>
      <point x="270" y="-165" type="line"/>
    </contour>
    <component base="uni0437"/>
  </outline>
</glyph>
<glyph name="uni049A" format="2">
  <advance width="630.83529"/>
  <unicode hex="049A"/>
  <outline>
    <contour>
      <point x="625" y="72" type="line"/>
      <point x="480" y="72" type="line"/>
      <point x="480" y="0" type="line"/>
      <point x="625" y="0" type="line"/>
    </contour>
    <contour>
      <point x="625" y="7" type="line"/>
      <point x="560" y="7" type="line"/>
      <point x="569" y="-151" type="line"/>
      <point x="625" y="-151" type="line"/>
    </contour>
    <component base="uni041A"/>
  </outline>
</glyph>
<glyph name="uni049B" format="2">
  <advance width="555.11765"/>
  <unicode hex="049B"/>
  <outline>
    <contour>
      <point x="547" y="68" type="line"/>
      <point x="429" y="68" type="line"/>
      <point x="429" y="0" type="line"/>
      <point x="547" y="0" type="line"/>
    </contour>
    <contour>
      <point x="547" y="5" type="line"/>
      <point x="481" y="5" type="line"/>
      <point x="490" y="-144" type="line"/>
      <point x="547" y="-144" type="line"/>
    </contour>
    <component base="uni043A"/>
  </outline>
</glyph>
<glyph name="uni049E" format="2">
  <advance width="643.92941"/>
  <unicode hex="049E"/>
  <outline>
    <contour>
      <point x="9" y="526" type="line"/>
      <point x="359" y="526" type="line"/>
      <point x="359" y="590" type="line"/>
      <point x="9" y="590" type="line"/>
    </contour>
    <component base="uni041A" xOffset="53"/>
  </outline>
</glyph>
<glyph name="uni04A0" format="2">
  <advance width="730.29412"/>
  <unicode hex="04A0"/>
  <outline>
    <contour>
      <point x="305" y="690" type="line"/>
      <point x="4" y="690" type="line"/>
      <point x="4" y="612" type="line"/>
      <point x="305" y="612" type="line"/>
    </contour>
    <component base="uni041A" xOffset="140"/>
  </outline>
</glyph>
<glyph name="uni04A2" format="2">
  <advance width="687.94118"/>
  <unicode hex="04A2"/>
  <outline>
    <contour>
      <point x="668" y="72" type="line"/>
      <point x="497" y="72" type="line"/>
      <point x="497" y="0" type="line"/>
      <point x="668" y="0" type="line"/>
    </contour>
    <contour>
      <point x="668" y="7" type="line"/>
      <point x="599" y="7" type="line"/>
      <point x="608" y="-151" type="line"/>
      <point x="668" y="-151" type="line"/>
    </contour>
    <component base="uni041D" xOffset="3"/>
  </outline>
</glyph>
<glyph name="uni04AE" format="2">
  <advance width="568.71765"/>
  <unicode hex="04AE"/>
  <outline>
    <contour>
      <point x="557" y="690" type="line"/>
      <point x="464" y="690" type="line"/>
      <point x="319" y="398" type="line" smooth="yes"/>
      <point x="308" y="374"/>
      <point x="297" y="346"/>
      <point x="288" y="321" type="curve"/>
      <point x="281" y="321" type="line"/>
      <point x="272" y="346"/>
      <point x="262" y="374"/>
      <point x="250" y="399" type="curve" smooth="yes"/>
      <point x="105" y="690" type="line"/>
      <point x="11" y="690" type="line"/>
      <point x="245" y="234" type="line"/>
      <point x="324" y="234" type="line"/>
    </contour>
    <contour>
      <point x="328" y="296" type="line"/>
      <point x="240" y="296" type="line"/>
      <point x="240" y="0" type="line"/>
      <point x="328" y="0" type="line"/>
    </contour>
  </outline>
</glyph>
<glyph name="uni04B0" format="2">
  <advance width="552.85882"/>
  <unicode hex="04B0"/>
  <outline>
    <contour>
      <point x="484" y="275" type="line"/>
      <point x="96" y="275" type="line"/>
      <point x="96" y="223" type="line"/>
      <point x="484" y="223" type="line"/>
    </contour>
    <component base="uni04AE" xOffset="4"/>
  </outline>
</glyph>
<glyph name="uni04B4" format="2">
  <advance width="817.10588"/>
  <unicode hex="04B4"/>
  <outline>
    <contour>
      <point x="625" y="0" type="line"/>
      <point x="713" y="0" type="line"/>
      <point x="713" y="690" type="line"/>
      <point x="625" y="690" type="line"/>
    </contour>
    <contour>
      <point x="218" y="0" type="line"/>
      <point x="306" y="0" type="line"/>
      <point x="306" y="690" type="line"/>
      <point x="218" y="690" type="line"/>
    </contour>
    <contour>
      <point x="298" y="0" type="line"/>
      <point x="797" y="0" type="line"/>
      <point x="797" y="72" type="line"/>
      <point x="298" y="72" type="line"/>
    </contour>
    <contour>
      <point x="737" y="-151" type="line"/>
      <point x="797" y="-151" type="line"/>
      <point x="797" y="7" type="line"/>
      <point x="728" y="7" type="line"/>
    </contour>
    <contour>
      <point x="24" y="612" type="line"/>
      <point x="525" y="612" type="line"/>
      <point x="525" y="690" type="line"/>
      <point x="24" y="690" type="line"/>
    </contour>
  </outline>
</glyph>
<glyph name="uni04B5" format="2">
  <advance width="709.41176"/>
  <unicode hex="04B5"/>
  <outline>
    <contour>
      <point x="538" y="0" type="line"/>
      <point x="624" y="0" type="line"/>
      <point x="624" y="487" type="line"/>
      <point x="538" y="487" type="line"/>
    </contour>
    <contour>
      <point x="184" y="0" type="line"/>
      <point x="269" y="0" type="line"/>
      <point x="269" y="487" type="line"/>
      <point x="184" y="487" type="line"/>
    </contour>
    <contour>
      <point x="262" y="0" type="line"/>
      <point x="687" y="0" type="line"/>
      <point x="687" y="72" type="line"/>
      <point x="262" y="72" type="line"/>
    </contour>
    <contour>
      <point x="627" y="-146" type="line"/>
      <point x="687" y="-146" type="line"/>
      <point x="687" y="7" type="line"/>
      <point x="618" y="7" type="line"/>
    </contour>
    <contour>
      <point x="17" y="420" type="line"/>
      <point x="436" y="420" type="line"/>
      <point x="436" y="487" type="line"/>
      <point x="17" y="487" type="line"/>
    </contour>
  </outline>
</glyph>
<glyph name="uni04BE" format="2">
  <advance width="723.67059"/>
  <unicode hex="04BE"/>
  <outline>
    <contour>
      <point x="478" y="7" type="line"/>
      <point x="408" y="7" type="line"/>
      <point x="414" y="-151" type="line"/>
      <point x="474" y="-151" type="line"/>
    </contour>
    <component base="uni04BC"/>
  </outline>
</glyph>
<glyph name="uni04BF" format="2">
  <advance width="620.17647"/>
  <unicode hex="04BF"/>
  <outline>
    <contour>
      <point x="400" y="5" type="line"/>
      <point x="328" y="5" type="line"/>
      <point x="336" y="-165" type="line"/>
      <point x="393" y="-165" type="line"/>
    </contour>
    <component base="uni04BD"/>
  </outline>
</glyph>
<glyph name="uni04C6" format="2">
  <advance width="577.84706"/>
  <unicode hex="04C6"/>
  <outline>
    <contour>
      <point x="410" y="68" type="line"/>
      <point x="410" y="0" type="line"/>
      <point x="490" y="0" type="line"/>
      <point x="452" y="-144" type="line"/>
      <point x="512" y="-144" type="line"/>
      <point x="559" y="0" type="line"/>
      <point x="559" y="68" type="line"/>
    </contour>
    <component base="uni043B"/>
  </outline>
</glyph>
<glyph name="uni04C9" format="2">
  <advance width="684.31765"/>
  <unicode hex="04C9"/>
  <outline>
    <contour>
      <point x="493" y="72" type="line"/>
      <point x="493" y="0" type="line"/>
      <point x="592" y="0" type="line"/>
      <point x="554" y="-151" type="line"/>
      <point x="614" y="-151" type="line"/>
      <point x="661" y="1" type="line"/>
      <point x="661" y="72" type="line"/>
    </contour>
    <component base="uni041D"/>
  </outline>
</glyph>
<glyph name="uni04CA" format="2">
  <advance width="598.09412"/>
  <unicode hex="04CA"/>
  <outline>
    <contour>
      <point x="430" y="71" type="line"/>
      <point x="430" y="0" type="line"/>
      <point x="510" y="0" type="line"/>
      <point x="472" y="-144" type="line"/>
      <point x="533" y="-144" type="line"/>
      <point x="580" y="0" type="line"/>
      <point x="580" y="71" type="line"/>
    </contour>
    <component base="uni043D"/>
  </outline>
</glyph>
<glyph name="uni04CB" format="2">
  <advance width="615.75294"/>
  <unicode hex="04CB"/>
  <outline>
    <contour>
      <point x="327" y="72" type="line"/>
      <point x="327" y="0" type="line"/>
      <point x="525" y="0" type="line"/>
      <point x="525" y="72" type="line"/>
    </contour>
    <contour>
      <point x="327" y="7" type="line"/>
      <point x="329" y="-151" type="line"/>
      <point x="389" y="-151" type="line"/>
      <point x="397" y="7" type="line"/>
    </contour>
    <component base="uni0427" xOffset="-13"/>
  </outline>
</glyph>
<glyph name="uni04CC" format="2">
  <advance width="531.98824"/>
  <unicode hex="04CC"/>
  <outline>
    <contour>
      <point x="300" y="68" type="line"/>
      <point x="300" y="0" type="line"/>
      <point x="408" y="0" type="line"/>
      <point x="408" y="68" type="line"/>
    </contour>
    <contour>
      <point x="300" y="5" type="line"/>
      <point x="300" y="-144" type="line"/>
      <point x="357" y="-144" type="line"/>
      <point x="366" y="5" type="line"/>
    </contour>
    <component base="uni0447"/>
  </outline>
</glyph>
<glyph name="uni04CD" format="2">
  <advance width="895.17647"/>
  <unicode hex="04CD"/>
  <outline>
    <contour>
      <point x="718" y="72" type="line"/>
      <point x="718" y="0" type="line"/>
      <point x="816" y="0" type="line"/>
      <point x="778" y="-151" type="line"/>
      <point x="838" y="-151" type="line"/>
      <point x="885" y="1" type="line"/>
      <point x="885" y="72" type="line"/>
    </contour>
    <component base="uni041C"/>
  </outline>
</glyph>
<glyph name="uni04CE" format="2">
  <advance width="755.01176"/>
  <unicode hex="04CE"/>
  <outline>
    <contour>
      <point x="609" y="71" type="line"/>
      <point x="609" y="0" type="line"/>
      <point x="681" y="0" type="line"/>
      <point x="643" y="-144" type="line"/>
      <point x="704" y="-144" type="line"/>
      <point x="751" y="0" type="line"/>
      <point x="751" y="71" type="line"/>
    </contour>
    <component base="uni043C"/>
  </outline>
</glyph>
<glyph name="uni04E8" format="2">
  <advance width="661.10588"/>
  <unicode hex="04E8"/>
  <anchor x="326" y="734" name="top"/>
  <outline>
    <contour>
      <point x="87" y="311" type="line"/>
      <point x="570" y="311" type="line"/>
      <point x="570" y="372" type="line"/>
      <point x="87" y="372" type="line"/>
    </contour>
    <component base="uni041E" xOffset="-7"/>
  </outline>
</glyph>
<glyph name="uni04F6" format="2">
  <advance width="500.08235"/>
  <unicode hex="04F6"/>
  <outline>
    <contour>
      <point x="256" y="72" type="line"/>
      <point x="85" y="72" type="line"/>
      <point x="85" y="0" type="line"/>
      <point x="256" y="0" type="line"/>
    </contour>
    <contour>
      <point x="256" y="7" type="line"/>
      <point x="187" y="7" type="line"/>
      <point x="196" y="-151" type="line"/>
      <point x="256" y="-151" type="line"/>
    </contour>
    <component base="uni0413"/>
  </outline>
</glyph>
<glyph name="uni04F7" format="2">
  <advance width="462.07059"/>
  <unicode hex="04F7"/>
  <outline>
    <contour>
      <point x="227" y="68" type="line"/>
      <point x="106" y="68" type="line"/>
      <point x="106" y="0" type="line"/>
      <point x="227" y="0" type="line"/>
    </contour>
    <contour>
      <point x="227" y="5" type="line"/>
      <point x="161" y="5" type="line"/>
      <point x="170" y="-144" type="line"/>
      <point x="227" y="-144" type="line"/>
    </contour>
    <component base="uni0433"/>
  </outline>
</glyph>
<glyph name="uni04FA" format="2">
  <advance width="536.27059"/>
  <unicode hex="04FA"/>
  <anchor x="332" y="734" name="top"/>
  <outline>
    <contour>
      <point x="113" y="-92" type="curve"/>
      <point x="113" y="-160" type="line"/>
      <point x="230" y="-160"/>
      <point x="287" y="-103"/>
      <point x="287" y="-12" type="curve" smooth="yes"/>
      <point x="287" y="75" type="line"/>
      <point x="121" y="75" type="line"/>
      <point x="121" y="0" type="line"/>
      <point x="214" y="0" type="line"/>
      <point x="214" y="-16" type="line" smooth="yes"/>
      <point x="214" y="-70"/>
      <point x="179" y="-92"/>
    </contour>
    <component base="uni0492"/>
  </outline>
</glyph>
<glyph name="uni04FB" format="2">
  <advance width="462.07059"/>
  <unicode hex="04FB"/>
  <outline>
    <contour>
      <point x="73" y="-100" type="curve"/>
      <point x="73" y="-160" type="line"/>
      <point x="182" y="-160"/>
      <point x="235" y="-103"/>
      <point x="235" y="-12" type="curve" smooth="yes"/>
      <point x="235" y="60" type="line"/>
      <point x="108" y="60" type="line"/>
      <point x="108" y="0" type="line"/>
      <point x="162" y="0" type="line"/>
      <point x="162" y="-16" type="line" smooth="yes"/>
      <point x="162" y="-76"/>
      <point x="131" y="-100"/>
    </contour>
    <component base="uni0493"/>
  </outline>
</glyph>
<glyph name="uni04FE" format="2">
  <advance width="593.96471"/>
  <unicode hex="04FE"/>
  <outline>
    <contour>
      <point x="482" y="0" type="line"/>
      <point x="578" y="0" type="line"/>
      <point x="383" y="357" type="line"/>
      <point x="565" y="690" type="line"/>
      <point x="469" y="690" type="line"/>
      <point x="293" y="357" type="line"/>
    </contour>
    <contour>
      <point x="17" y="0" type="line"/>
      <point x="112" y="0" type="line"/>
      <point x="301" y="357" type="line"/>
      <point x="125" y="690" type="line"/>
      <point x="30" y="690" type="line"/>
      <point x="211" y="357" type="line"/>
    </contour>
    <contour>
      <point x="84" y="324" type="line"/>
      <point x="509" y="324" type="line"/>
      <point x="509" y="389" type="line"/>
      <point x="84" y="389" type="line"/>
    </contour>
    <contour>
      <point x="243" y="324" type="line"/>
      <point x="350" y="324" type="line"/>
      <point x="350" y="392" type="line"/>
      <point x="243" y="392" type="line"/>
    </contour>
  </outline>
</glyph>
<glyph name="uni0510" format="2">
  <advance width="550"/>
  <unicode hex="0510"/>
  <outline>
    <contour>
      <point x="307" y="698" type="curve" smooth="yes"/>
      <point x="139" y="698"/>
      <point x="80" y="660"/>
      <point x="80" y="518" type="curve" smooth="yes"/>
      <point x="80" y="419"/>
      <point x="114" y="368"/>
      <point x="196" y="360" type="curve"/>
      <point x="196" y="356" type="line"/>
      <point x="94" y="347"/>
      <point x="60" y="282"/>
      <point x="60" y="172" type="curve" smooth="yes"/>
      <point x="60" y="30"/>
      <point x="121" y="-8"/>
      <point x="277" y="-8" type="curve" smooth="yes"/>
      <point x="371" y="-8"/>
      <point x="445" y="-2"/>
      <point x="513" y="14" type="curve"/>
      <point x="506" y="78" type="line"/>
      <point x="454" y="72"/>
      <point x="378" y="65"/>
      <point x="291" y="65" type="curve" smooth="yes"/>
      <point x="186" y="65"/>
      <point x="150" y="87"/>
      <point x="150" y="187" type="curve" smooth="yes"/>
      <point x="150" y="293"/>
      <point x="188" y="323"/>
      <point x="298" y="323" type="curve" smooth="yes"/>
      <point x="414" y="323" type="line"/>
      <point x="414" y="392" type="line"/>
      <point x="298" y="392" type="line" smooth="yes"/>
      <point x="201" y="392"/>
      <point x="168" y="416"/>
      <point x="168" y="508" type="curve" smooth="yes"/>
      <point x="168" y="604"/>
      <point x="205" y="626"/>
      <point x="312" y="626" type="curve" smooth="yes"/>
      <point x="388" y="626"/>
      <point x="447" y="619"/>
      <point x="490" y="615" type="curve"/>
      <point x="497" y="682" type="line"/>
      <point x="436" y="693"/>
      <point x="382" y="698"/>
    </contour>
  </outline>
</glyph>
<glyph name="uni0511" format="2">
  <advance width="496"/>
  <unicode hex="0511"/>
  <outline>
    <contour>
      <point x="290" y="495" type="curve" smooth="yes"/>
      <point x="129" y="495"/>
      <point x="70" y="471"/>
      <point x="70" y="365" type="curve" smooth="yes"/>
      <point x="70" y="295"/>
      <point x="96" y="259"/>
      <point x="173" y="252" type="curve"/>
      <point x="173" y="249" type="line"/>
      <point x="87" y="242"/>
      <point x="53" y="202"/>
      <point x="53" y="120" type="curve" smooth="yes"/>
      <point x="53" y="17"/>
      <point x="113" y="-9"/>
      <point x="262" y="-9" type="curve" smooth="yes"/>
      <point x="322" y="-9"/>
      <point x="394" y="-5"/>
      <point x="455" y="6" type="curve"/>
      <point x="448" y="71" type="line"/>
      <point x="404" y="67"/>
      <point x="332" y="63"/>
      <point x="268" y="63" type="curve" smooth="yes"/>
      <point x="170" y="63"/>
      <point x="141" y="79"/>
      <point x="141" y="138" type="curve" smooth="yes"/>
      <point x="141" y="199"/>
      <point x="172" y="217"/>
      <point x="266" y="217" type="curve" smooth="yes"/>
      <point x="383" y="217" type="line"/>
      <point x="383" y="279" type="line"/>
      <point x="267" y="280" type="line" smooth="yes"/>
      <point x="180" y="280"/>
      <point x="154" y="296"/>
      <point x="154" y="354" type="curve" smooth="yes"/>
      <point x="154" y="411"/>
      <point x="186" y="423"/>
      <point x="289" y="423" type="curve" smooth="yes"/>
      <point x="341" y="423"/>
      <point x="397" y="420"/>
      <point x="433" y="415" type="curve"/>
      <point x="440" y="480" type="line"/>
      <point x="385" y="493"/>
      <point x="330" y="495"/>
    </contour>
  </outline>
</glyph>
<glyph name="uni0524" format="2">
  <advance width="685.67059"/>
  <unicode hex="0524"/>
  <outline>
    <contour>
      <point x="666" y="72" type="line"/>
      <point x="494" y="72" type="line"/>
      <point x="494" y="0" type="line"/>
      <point x="666" y="0" type="line"/>
    </contour>
    <contour>
      <point x="666" y="7" type="line"/>
      <point x="596" y="7" type="line"/>
      <point x="605" y="-151" type="line"/>
      <point x="666" y="-151" type="line"/>
    </contour>
    <component base="uni041F"/>
  </outline>
</glyph>
<glyph name="uni0525" format="2">
  <advance width="582.23529"/>
  <unicode hex="0525"/>
  <outline>
    <contour>
      <point x="561" y="68" type="line"/>
      <point x="440" y="68" type="line"/>
      <point x="440" y="0" type="line"/>
      <point x="561" y="0" type="line"/>
    </contour>
    <contour>
      <point x="561" y="5" type="line"/>
      <point x="495" y="5" type="line"/>
      <point x="504" y="-144" type="line"/>
      <point x="561" y="-144" type="line"/>
    </contour>
    <component base="uni043F"/>
  </outline>
</glyph>
<glyph name="uni0526" format="2">
  <advance width="658.8"/>
  <unicode hex="0526"/>
  <outline>
    <contour>
      <point x="647" y="72" type="line"/>
      <point x="478" y="72" type="line"/>
      <point x="478" y="0" type="line"/>
      <point x="647" y="0" type="line"/>
    </contour>
    <contour>
      <point x="647" y="7" type="line"/>
      <point x="578" y="7" type="line"/>
      <point x="587" y="-151" type="line"/>
      <point x="647" y="-151" type="line"/>
    </contour>
    <component base="uni04BA"/>
  </outline>
</glyph>
<glyph name="uni0527" format="2">
  <advance width="593.8"/>
  <unicode hex="0527"/>
  <outline>
    <contour>
      <point x="573" y="68" type="line"/>
      <point x="465" y="68" type="line"/>
      <point x="465" y="0" type="line"/>
      <point x="573" y="0" type="line"/>
    </contour>
    <contour>
      <point x="573" y="5" type="line"/>
      <point x="507" y="5" type="line"/>
      <point x="516" y="-144" type="line"/>
      <point x="573" y="-144" type="line"/>
    </contour>
    <component base="uni04BB"/>
  </outline>
</glyph>
<glyph name="uni0529" format="2">
  <advance width="600"/>
  <unicode hex="0529"/>
  <outline>
    <contour>
      <point x="-51" y="-110" type="curve"/>
      <point x="-51" y="-168" type="line"/>
      <point x="86" y="-187"/>
      <point x="163" y="-112"/>
      <point x="163" y="41" type="curve" smooth="yes"/>
      <point x="163" y="487" type="line"/>
      <point x="79" y="487" type="line"/>
      <point x="79" y="42" type="line" smooth="yes"/>
      <point x="79" y="-66"/>
      <point x="54" y="-110"/>
    </contour>
    <contour>
      <point x="157" y="226" type="line"/>
      <point x="428" y="226" type="line"/>
      <point x="428" y="291" type="line"/>
      <point x="157" y="291" type="line"/>
    </contour>
    <contour>
      <point x="419" y="0" type="line"/>
      <point x="503" y="0" type="line"/>
      <point x="503" y="487" type="line"/>
      <point x="419" y="487" type="line"/>
    </contour>
  </outline>
</glyph>
<glyph name="uni052E" format="2">
  <advance width="679.01176"/>
  <unicode hex="052E"/>
  <outline>
    <contour>
      <point x="647" y="72" type="line"/>
      <point x="482" y="72" type="line"/>
      <point x="482" y="0" type="line"/>
      <point x="647" y="0" type="line"/>
    </contour>
    <contour>
      <point x="647" y="7" type="line"/>
      <point x="578" y="7" type="line"/>
      <point x="587" y="-151" type="line"/>
      <point x="647" y="-151" type="line"/>
    </contour>
    <component base="uni041B"/>
  </outline>
</glyph>
<glyph name="uni052F" format="2">
  <advance width="561.8"/>
  <unicode hex="052F"/>
  <outline>
    <contour>
      <point x="559" y="5" type="line"/>
      <point x="494" y="5" type="line"/>
      <point x="503" y="-144" type="line"/>
      <point x="559" y="-144" type="line"/>
    </contour>
    <contour>
      <point x="559" y="68" type="line"/>
      <point x="452" y="68" type="line"/>
      <point x="452" y="0" type="line"/>
      <point x="559" y="0" type="line"/>
    </contour>
    <component base="uni043B"/>
  </outline>
</glyph>
<glyph name="figuredash" format="2">
  <advance width="520.90588"/>
  <unicode hex="2012"/>
  <outline>
    <contour>
      <point x="449" y="285" type="line"/>
      <point x="72" y="285" type="line"/>
      <point x="72" y="220" type="line"/>
      <point x="449" y="220" type="line"/>
    </contour>
  </outline>
</glyph>
<glyph name="guilsinglleft" format="2">
  <advance width="284.81176"/>
  <unicode hex="2039"/>
  <outline>
    <contour>
      <point x="196" y="459" type="line"/>
      <point x="36" y="261" type="line"/>
      <point x="36" y="241" type="line"/>
      <point x="197" y="39" type="line"/>
      <point x="242" y="69" type="line"/>
      <point x="115" y="251" type="line"/>
      <point x="241" y="429" type="line"/>
    </contour>
  </outline>
</glyph>
<glyph name="uni20BC" format="2">
  <advance width="616.15294"/>
  <unicode hex="20BC"/>
  <outline>
    <contour>
      <point x="77" y="325" type="curve" smooth="yes"/>
      <point x="77" y="0" type="line"/>
      <point x="164" y="0" type="line"/>
      <point x="164" y="267" type="line" smooth="yes"/>
      <point x="164" y="421"/>
      <point x="181" y="511"/>
      <point x="308" y="511" type="curve" smooth="yes"/>
      <point x="436" y="511"/>
      <point x="452" y="421"/>
      <point x="452" y="267" type="curve" smooth="yes"/>
      <point x="452" y="0" type="line"/>
      <point x="539" y="0" type="line"/>
      <point x="539" y="325" type="line" smooth="yes"/>
      <point x="539" y="503"/>
      <point x="466" y="592"/>
      <point x="308" y="592" type="curve" smooth="yes"/>
      <point x="151" y="592"/>
      <point x="77" y="503"/>
    </contour>
    <contour>
      <point x="336" y="697" type="line"/>
      <point x="280" y="697" type="line"/>
      <point x="280" y="107" type="line"/>
      <point x="336" y="107" type="line"/>
    </contour>
  </outline>
</glyph>
<glyph name="minus" format="2">
  <advance width="585.35294"/>
  <unicode hex="2212"/>
  <outline>
    <contour>
      <point x="512" y="327" type="line"/>
      <point x="74" y="327" type="line"/>
      <point x="74" y="263" type="line"/>
      <point x="512" y="263" type="line"/>
    </contour>
  </outline>
</glyph>
<glyph name=".notdef" format="2">
  <advance width="623.90588"/>
  <outline>
    <contour>
      <point x="138" y="690" type="line"/>
      <point x="97" y="690" type="line"/>
      <point x="97" y="0" type="line"/>
      <point x="138" y="0" type="line"/>
    </contour>
    <contour>
      <point x="527" y="690" type="line"/>
      <point x="486" y="690" type="line"/>
      <point x="486" y="0" type="line"/>
      <point x="527" y="0" type="line"/>
    </contour>
    <contour>
      <point x="97" y="690" type="line"/>
      <point x="97" y="649" type="line"/>
      <point x="527" y="649" type="line"/>
      <point x="527" y="690" type="line"/>
    </contour>
    <contour>
      <point x="97" y="41" type="line"/>
      <point x="97" y="0" type="line"/>
      <point x="527" y="0" type="line"/>
      <point x="527" y="41" type="line"/>
    </contour>
  </outline>
</glyph>
<glyph name="dblgrave" format="2">
  <advance width="454.49412"/>
  <anchor x="267" y="544" name="_top"/>
  <outline>
    <contour>
      <point x="281" y="741" type="line"/>
      <point x="219" y="699" type="line"/>
      <point x="353" y="539" type="line"/>
      <point x="391" y="567" type="line"/>
    </contour>
    <contour>
      <point x="117" y="741" type="line"/>
      <point x="55" y="699" type="line"/>
      <point x="189" y="539" type="line"/>
      <point x="226" y="567" type="line"/>
    </contour>
  </outline>
</glyph>
<glyph name="f_f_y" format="2">
  <advance width="1204.31765"/>
  <anchor x="201" y="0" name="bottom_1"/>
  <anchor x="602" y="0" name="bottom_2"/>
  <anchor x="1004" y="0" name="bottom_3"/>
  <anchor x="401.439" y="0" name="caret_1"/>
  <anchor x="802.878" y="0" name="caret_2"/>
  <anchor x="201" y="700" name="top_1"/>
  <anchor x="602" y="700" name="top_2"/>
  <anchor x="1004" y="700" name="top_3"/>
  <outline>
    <contour>
      <point x="688" y="487" type="curve" smooth="yes"/>
      <point x="121" y="487" type="line"/>
      <point x="28" y="482" type="line"/>
      <point x="28" y="420" type="line"/>
      <point x="672" y="420" type="line" smooth="yes"/>
      <point x="704" y="420"/>
      <point x="724" y="406"/>
      <point x="735" y="377" type="curve" smooth="yes"/>
      <point x="871" y="22" type="line"/>
      <point x="875" y="8"/>
      <point x="886" y="0"/>
      <point x="901" y="0" type="curve" smooth="yes"/>
      <point x="933" y="0" type="line"/>
      <point x="959" y="65" type="line"/>
      <point x="932" y="65" type="line"/>
      <point x="927" y="85"/>
      <point x="921" y="104"/>
      <point x="914" y="124" type="curve" smooth="yes"/>
      <point x="816" y="396" type="line" smooth="yes"/>
      <point x="795" y="457"/>
      <point x="754" y="487"/>
    </contour>
    <contour>
      <point x="258" y="704" type="curve" smooth="yes"/>
      <point x="161" y="704"/>
      <point x="116" y="652"/>
      <point x="116" y="562" type="curve" smooth="yes"/>
      <point x="116" y="0" type="line"/>
      <point x="201" y="0" type="line"/>
      <point x="201" y="552" type="line" smooth="yes"/>
      <point x="201" y="617"/>
      <point x="224" y="634"/>
      <point x="288" y="634" type="curve" smooth="yes"/>
      <point x="374" y="634" type="line"/>
      <point x="380" y="697" type="line"/>
      <point x="346" y="702"/>
      <point x="287" y="704"/>
    </contour>
    <contour>
      <point x="589" y="717" type="curve" smooth="yes"/>
      <point x="485" y="717"/>
      <point x="447" y="665"/>
      <point x="447" y="574" type="curve" smooth="yes"/>
      <point x="447" y="0" type="line"/>
      <point x="532" y="0" type="line"/>
      <point x="532" y="565" type="line" smooth="yes"/>
      <point x="532" y="624"/>
      <point x="555" y="647"/>
      <point x="619" y="647" type="curve" smooth="yes"/>
      <point x="719" y="647" type="line"/>
      <point x="726" y="710" type="line"/>
      <point x="688" y="715"/>
      <point x="621" y="717"/>
    </contour>
    <contour>
      <point x="991" y="-27" type="curve" smooth="yes"/>
      <point x="1186" y="487" type="line"/>
      <point x="1094" y="487" type="line"/>
      <point x="966" y="124" type="line" smooth="yes"/>
      <point x="958" y="100"/>
      <point x="951" y="74"/>
      <point x="941" y="51" type="curve" smooth="yes"/>
      <point x="911" y="-21" type="line" smooth="yes"/>
      <point x="886" y="-81"/>
      <point x="849" y="-125"/>
      <point x="769" y="-150" type="curve"/>
      <point x="778" y="-206" type="line"/>
      <point x="899" y="-200"/>
      <point x="958" y="-113"/>
    </contour>
  </outline>
</glyph>
<glyph name="f_t" format="2">
  <advance width="714.6"/>
  <anchor x="179" y="0" name="bottom_1"/>
  <anchor x="536" y="0" name="bottom_2"/>
  <anchor x="357.3" y="0" name="caret_1"/>
  <anchor x="179" y="700" name="top_1"/>
  <anchor x="536" y="700" name="top_2"/>
  <outline>
    <contour>
      <point x="258" y="717" type="curve" smooth="yes"/>
      <point x="154" y="717"/>
      <point x="116" y="665"/>
      <point x="116" y="574" type="curve" smooth="yes"/>
      <point x="116" y="0" type="line"/>
      <point x="201" y="0" type="line"/>
      <point x="201" y="565" type="line" smooth="yes"/>
      <point x="201" y="624"/>
      <point x="224" y="647"/>
      <point x="288" y="647" type="curve" smooth="yes"/>
      <point x="381" y="647" type="line"/>
      <point x="388" y="710" type="line"/>
      <point x="351" y="715"/>
      <point x="288" y="717"/>
    </contour>
    <contour>
      <point x="533" y="134" type="curve" smooth="yes"/>
      <point x="533" y="631" type="line"/>
      <point x="448" y="631" type="line"/>
      <point x="448" y="123" type="line" smooth="yes"/>
      <point x="448" y="38"/>
      <point x="491" y="-9"/>
      <point x="573" y="-9" type="curve" smooth="yes"/>
      <point x="597" y="-9"/>
      <point x="651" y="-5"/>
      <point x="683" y="4" type="curve"/>
      <point x="673" y="69" type="line"/>
      <point x="599" y="69" type="line" smooth="yes"/>
      <point x="552" y="69"/>
      <point x="533" y="87"/>
    </contour>
    <contour>
      <point x="688" y="487" type="line"/>
      <point x="121" y="487" type="line"/>
      <point x="28" y="482" type="line"/>
      <point x="28" y="420" type="line"/>
      <point x="688" y="420" type="line"/>
    </contour>
  </outline>
</glyph>
<glyph name="t_t" format="2">
  <advance width="727.45882"/>
  <anchor x="182" y="0" name="bottom_1"/>
  <anchor x="546" y="0" name="bottom_2"/>
  <anchor x="363.729" y="0" name="caret_1"/>
  <anchor x="182" y="244" name="center_1"/>
  <anchor x="546" y="244" name="center_2"/>
  <anchor x="182" y="631" name="top_1"/>
  <anchor x="546" y="631" name="top_2"/>
  <anchor x="707" y="700" name="topright_1"/>
  <anchor x="707" y="700" name="topright_2"/>
  <outline>
    <contour>
      <point x="200" y="134" type="curve" smooth="yes"/>
      <point x="200" y="631" type="line"/>
      <point x="115" y="631" type="line"/>
      <point x="115" y="123" type="line" smooth="yes"/>
      <point x="115" y="38"/>
      <point x="158" y="-9"/>
      <point x="240" y="-9" type="curve" smooth="yes"/>
      <point x="264" y="-9"/>
      <point x="318" y="-5"/>
      <point x="350" y="4" type="curve"/>
      <point x="340" y="69" type="line"/>
      <point x="266" y="69" type="line" smooth="yes"/>
      <point x="218" y="69"/>
      <point x="200" y="87"/>
    </contour>
    <contour>
      <point x="546" y="134" type="curve" smooth="yes"/>
      <point x="546" y="631" type="line"/>
      <point x="461" y="631" type="line"/>
      <point x="461" y="123" type="line" smooth="yes"/>
      <point x="461" y="38"/>
      <point x="504" y="-9"/>
      <point x="586" y="-9" type="curve" smooth="yes"/>
      <point x="610" y="-9"/>
      <point x="664" y="-5"/>
      <point x="696" y="4" type="curve"/>
      <point x="686" y="69" type="line"/>
      <point x="612" y="69" type="line" smooth="yes"/>
      <point x="565" y="69"/>
      <point x="546" y="87"/>
    </contour>
    <contour>
      <point x="701" y="487" type="line"/>
      <point x="123" y="487" type="line"/>
      <point x="27" y="482" type="line"/>
      <point x="27" y="420" type="line"/>
      <point x="701" y="420" type="line"/>
    </contour>
  </outline>
</glyph>
<glyph name="uni0306.cy" format="2">
  <advance width="0"/>
  <anchor x="188" y="487" name="_top"/>
  <outline>
    <contour>
      <point x="338" y="635" type="curve"/>
      <point x="273" y="635" type="line"/>
      <point x="273" y="577"/>
      <point x="242" y="545"/>
      <point x="189" y="545" type="curve" smooth="yes"/>
      <point x="134" y="545"/>
      <point x="103" y="577"/>
      <point x="103" y="635" type="curve"/>
      <point x="38" y="635" type="line"/>
      <point x="33" y="557"/>
      <point x="92" y="497"/>
      <point x="189" y="497" type="curve" smooth="yes"/>
      <point x="285" y="497"/>
      <point x="343" y="557"/>
    </contour>
  </outline>
</glyph>
<glyph name="uni030C.alt" format="2">
  <advance width="0"/>
  <anchor x="-124" y="645" name="_topright"/>
  <outline>
    <contour>
      <point x="-116" y="712" type="curve" smooth="yes"/>
      <point x="-138" y="712" type="line" smooth="yes"/>
      <point x="-159" y="712"/>
      <point x="-168" y="705"/>
      <point x="-168" y="686" type="curve" smooth="yes"/>
      <point x="-168" y="636" type="line" smooth="yes"/>
      <point x="-168" y="622"/>
      <point x="-161" y="614"/>
      <point x="-147" y="614" type="curve"/>
      <point x="-147" y="573"/>
      <point x="-150" y="548"/>
      <point x="-156" y="513" type="curve"/>
      <point x="-120" y="504" type="line"/>
      <point x="-100" y="542"/>
      <point x="-87" y="585"/>
      <point x="-88" y="632" type="curve" smooth="yes"/>
      <point x="-88" y="686" type="line" smooth="yes"/>
      <point x="-89" y="705"/>
      <point x="-95" y="712"/>
    </contour>
  </outline>
</glyph>
